<svg xmlns="http://www.w3.org/2000/svg" viewBox="0 0 128 128">
  <path d="M63.48 1.45c-34.49 0-62.86 28.36-62.86 62.86 0 34.49 28.36 62.86 62.86 62.86 34.49 0 62.86-28.36 62.86-62.86 0-34.49-28.36-62.86-62.86-62.86zm0 4.76c32.14 0 58.1 25.96 58.1 58.1 0 32.14-25.96 58.1-58.1 58.1-32.14 0-58.1-25.96-58.1-58.1 0-32.14 25.96-58.1 58.1-58.1z" fill="#00758f"/>
  <path d="M63.48 15.42c-26.64 0-48.13 21.49-48.13 48.13 0 26.64 21.49 48.13 48.13 48.13 26.64 0 48.13-21.49 48.13-48.13 0-26.64-21.49-48.13-48.13-48.13zm0 4.76c23.95 0 43.37 19.42 43.37 43.37 0 23.95-19.42 43.37-43.37 43.37-23.95 0-43.37-19.42-43.37-43.37 0-23.95 19.42-43.37 43.37-43.37z" fill="#00758f"/>
  <g fill="#00758f">
    <path d="M39.3 49.9h2.7v16.8h-2.7zM44.8 49.9h2.6v16.8h-2.6zM50.3 49.9h2.7v16.8h-2.7zM64.2 49.9h-8.2v2.6h5.5v14.2h2.7zM68.5 49.9h2.7v16.8h-2.7zM74 49.9h8.2v2.6h-5.5v14.2h-2.7z"/>
  </g>
</svg>
